<?xml version="1.0" encoding="UTF-8"?>
<svg id="Vrstva_21" data-name="Vrstva 21" xmlns="http://www.w3.org/2000/svg" viewBox="0 0 300 300">
  <defs>
    <style>
      .cls-1 {
        fill: #ffaa64;
      }

      .cls-2 {
        fill: #fff3c7;
      }

      .cls-3 {
        fill: #ffe773;
      }

      .cls-4 {
        fill: #b2b2b2;
      }
    </style>
  </defs>
  <g id="Vrstva_17" data-name="Vrstva 17">
    <rect class="cls-2" width="300" height="300"/>
    <g>
      <path class="cls-1" d="M142.02,107.57h-10.28c-11.48,0-17.12-13.92-9.09-21.94,2.33-2.33,5.54-3.77,9.09-3.77l-11.58-21.13c-2.5-4.57.8-10.15,6.01-10.15h21.42c5.21,0,8.51,5.58,6.01,10.15l-11.58,21.13c11.48,0,17.12,13.92,9.09,21.94-2.33,2.33-5.54,3.77-9.09,3.77h0Z"/>
      <path class="cls-1" d="M184.72,249.34c-1.59.11,5.29.08-93.58.08-17.22,0-30.18-15.68-26.93-32.59l11.21-58.46c5.66-29.47,31.44-50.78,61.46-50.78s55.77,21.15,61.46,50.78c.79,4.13,10.83,56.45,11.21,58.46,3.2,16.68-9.42,31.66-24.83,32.52h0Z"/>
      <path class="cls-4" d="M144.71,82.15c5.33,1.14,4.48,9-.97,9-6.53,0-11.74,4.8-12.71,10.82-.55,3.4-4.6,4.96-7.3,2.81-9.63-7.66-3.93-22.92,8.28-22.92,10.93,0,10.97-.09,12.7.28h0Z"/>
      <path class="cls-1" d="M142.02,81.86c7.1,0,12.86,5.76,12.86,12.86s-5.76,12.86-12.86,12.86h-10.28c-11.49,0-17.11-13.92-9.09-21.94,2.33-2.33,5.54-3.77,9.09-3.77h10.28Z"/>
      <path class="cls-3" d="M177.59,132c32.42,0,58.71,26.29,58.71,58.71s-26.29,58.71-58.71,58.71-58.71-26.29-58.71-58.71,26.29-58.71,58.71-58.71Z"/>
      <g>
        <path class="cls-1" d="M199.34,178.65l-33.81,33.81c-2.66,2.67-7.02,2.69-9.69,0-2.68-2.67-2.68-7.02,0-9.69l33.81-33.81c2.67-2.68,7.02-2.68,9.69,0,2.68,2.67,2.68,7.02,0,9.69Z"/>
        <path class="cls-1" d="M154.39,173.8c0-5.03,4.09-9.11,9.11-9.11s9.11,4.09,9.11,9.11-4.09,9.11-9.11,9.11-9.11-4.09-9.11-9.11h0Z"/>
        <path class="cls-1" d="M200.79,207.61c0,5.03-4.09,9.11-9.11,9.11s-9.11-4.09-9.11-9.11,4.09-9.11,9.11-9.11,9.11,4.09,9.11,9.11Z"/>
      </g>
    </g>
  </g>
</svg>