<?xml version="1.0" encoding="UTF-8"?>
<svg id="Vrstva_21" data-name="Vrstva 21" xmlns="http://www.w3.org/2000/svg" viewBox="0 0 300 300">
  <defs>
    <style>
      .cls-1 {
        fill: #ffaa64;
      }

      .cls-2 {
        fill: #777ce9;
      }

      .cls-3 {
        fill: #bbbcf3;
      }

      .cls-4 {
        fill: #fff;
      }

      .cls-5 {
        fill: #ede9ff;
      }

      .cls-6 {
        fill: #fdd440;
      }
    </style>
  </defs>
  <g id="Vrstva_18" data-name="Vrstva 18">
    <rect class="cls-5" width="300" height="300"/>
    <g>
      <path class="cls-2" d="M188.24,72.86v-12.85c0-4.84-4.17-8.77-9.34-8.77h-103.58c-5.17,0-9.34,3.93-9.34,8.77v140.24c0,4.84,4.17,8.77,9.34,8.77h13l99.92-136.16Z"/>
      <path class="cls-3" d="M210.58,81.64v103.4c-3.03-.9-41.44,41.36-39.46,45.61h-73.46c-5.17,0-9.34-3.93-9.34-8.77V81.64c0-4.84,4.17-8.77,9.34-8.77h103.58c5.17,0,9.34,3.93,9.34,8.77Z"/>
      <g>
        <path class="cls-4" d="M118.3,110.17h62.3c1.97,0,3.56-1.59,3.56-3.56s-1.6-3.56-3.56-3.56h-62.3c-1.97,0-3.56,1.59-3.56,3.56s1.6,3.56,3.56,3.56Z"/>
        <path class="cls-4" d="M180.6,129.99h-62.3c-1.97,0-3.56,1.59-3.56,3.56s1.6,3.56,3.56,3.56h62.3c1.97,0,3.56-1.59,3.56-3.56s-1.6-3.56-3.56-3.56Z"/>
        <path class="cls-4" d="M180.6,156.94h-62.3c-1.97,0-3.56,1.59-3.56,3.56s1.6,3.56,3.56,3.56h62.3c1.97,0,3.56-1.59,3.56-3.56s-1.6-3.56-3.56-3.56Z"/>
        <path class="cls-4" d="M149.45,183.89h-31.15c-1.97,0-3.56,1.59-3.56,3.56s1.6,3.56,3.56,3.56h31.15c1.97,0,3.56-1.59,3.56-3.56s-1.6-3.56-3.56-3.56Z"/>
      </g>
      <path class="cls-6" d="M234.02,216.64c0,18.23-14.77,33-33,33-13.24,0-24.63-7.77-29.9-19-1.99-4.25-3.11-8.99-3.11-14,0-18.23,14.77-33,33-33,3.32,0,6.53.49,9.56,1.4,13.57,4.11,23.45,16.7,23.45,31.61Z"/>
      <path class="cls-1" d="M214.41,223.65c0-5.83-4.74-10.57-10.57-10.57h-5.64c-1.9,0-3.44-1.54-3.44-3.44s1.54-3.44,3.44-3.44h6.09c1,0,1.92.49,2.48,1.32,1.1,1.63,3.31,2.06,4.95.96,1.63-1.1,2.06-3.32.96-4.95-1.83-2.71-4.84-4.33-8.09-4.42v-1.27c0-1.97-1.6-3.56-3.56-3.56s-3.56,1.59-3.56,3.56v1.31c-5.47.39-9.82,4.92-9.82,10.49s4.74,10.57,10.57,10.57h5.64c1.9,0,3.44,1.55,3.44,3.44s-1.54,3.44-3.44,3.44h-6.09c-.8,0-1.55-.31-2.12-.88-1.39-1.39-3.65-1.39-5.04,0s-1.39,3.65,0,5.04c1.84,1.84,4.27,2.86,6.86,2.94v1.26c0,1.97,1.6,3.56,3.56,3.56s3.56-1.59,3.56-3.56v-1.31c5.48-.39,9.82-4.92,9.82-10.49Z"/>
    </g>
  </g>
</svg>