<?xml version="1.0" encoding="UTF-8"?>
<svg id="Vrstva_2" data-name="Vrstva 2" xmlns="http://www.w3.org/2000/svg" viewBox="0 0 300 300">
  <defs>
    <style>
      .cls-1 {
        fill: #7cb302;
      }

      .cls-2 {
        fill: #fff;
      }

      .cls-3 {
        fill: #ecfdcb;
      }
    </style>
  </defs>
  <rect class="cls-3" width="300" height="300"/>
  <rect class="cls-2" x="85.42" y="66.37" width="129.15" height="167.25"/>
  <path class="cls-1" d="M239.81,50.35H60.54c-5.62,0-10.54,4.57-10.54,9.84v179.26c0,5.62,4.57,10.19,10.19,10.19h179.26c5.62,0,10.19-4.57,10.54-9.84V60.54c0-5.62-4.57-10.19-10.19-10.19ZM189.89,195.87c0,3.87-1.41,7.73-3.87,10.9-2.46,3.16-5.27,5.98-8.79,7.73s-7.03,3.16-10.54,3.87c-4.92,1.05-10.9,1.41-18.28,1.05-7.03-.35-14.06-.7-20.74-3.16-9.49-3.51-17.93-11.25-14.06-21.09,1.05-3.16,3.87-5.98,7.38-7.73,2.11-.7,4.57-1.41,7.03-1.41s8.79.7,8.79,1.05c-11.6,15.11,28.12,19.68,28.82,7.38,0-1.41-.35-2.81-1.76-4.22-2.46-2.46-8.44-5.27-17.57-8.79-13.36-5.27-28.47-9.49-33.39-14.06-4.92-4.57-7.03-10.19-6.68-17.22,0-4.22,1.76-8.08,3.87-11.25,2.11-2.81,4.92-5.27,8.44-8.08-.35.7-4.57,8.08,14.06,20.39,2.11,1.41,7.73,4.92,17.22,9.14,11.6,4.92,26.01,10.19,34.45,19.68,2.11,2.46,3.51,5.27,4.57,7.38.7,2.46,1.41,5.27,1.05,8.44ZM193.76,149.47c-.35,4.22-1.76,8.08-3.87,11.25-2.11,2.81-4.92,5.27-8.44,8.08.35-.7,4.57-8.08-14.06-20.39-2.11-1.41-7.73-4.92-17.22-9.14-11.6-4.92-26.01-10.19-34.45-19.68-2.11-2.11-3.87-4.92-4.57-7.73-.7-2.46-1.41-5.27-1.05-8.44.35-3.87,1.41-7.73,3.87-10.9,2.46-3.16,5.27-5.98,8.79-7.73s7.03-3.16,10.54-3.87c4.92-1.05,10.9-1.41,18.28-1.05,7.03,0,14.06.7,20.74,3.16,9.49,3.51,17.93,11.25,14.06,21.09-1.05,3.16-3.87,5.98-7.38,7.73-2.11.7-4.57,1.41-7.03,1.41s-8.79-.7-8.79-1.05c11.6-15.11-28.12-19.68-28.82-7.38,0,1.41,0,2.81,1.76,4.22,2.46,2.46,8.44,5.27,17.57,8.79,13.36,5.27,28.47,9.49,33.39,14.06,4.92,4.92,7.03,10.54,6.68,17.57Z"/>
</svg>